<svg xmlns="http://www.w3.org/2000/svg" version="1.1" xmlns:xlink="http://www.w3.org/1999/xlink" xmlns:svgjs="http://svgjs.com/svgjs" width="1920" height="1080" preserveAspectRatio="none" viewBox="0 0 1920 1080"><g mask="url(&quot;#SvgjsMask1022&quot;)" fill="none"><rect width="1920" height="1080" x="0" y="0" fill="url(#SvgjsLinearGradient1023)"></rect><path d="M2200.39 682.67C1998.34 669.08 1830.53 332.98 1495.79 283.07 1161.05 233.16 1277.35-115.42 1143.49-163.28" stroke="rgba(0, 60, 58, 1)" stroke-width="2"></path><path d="M2125.66 776.8C1973.55 775.95 1829.01 641.8 1532.37 641.8 1235.72 641.8 1282.17 801.93 939.07 776.8 595.97 751.67 581.16 44.15 345.78-55.06" stroke="rgba(0, 60, 58, 1)" stroke-width="2"></path><path d="M2035.95 807.82C1886.94 806.94 1745.68 672.82 1455.41 672.82 1165.14 672.82 1221.95 842.15 874.86 807.82 527.77 773.49 535.53 19.61 294.32-100.66" stroke="rgba(0, 60, 58, 1)" stroke-width="2"></path><path d="M2048.77 872.23C1824.12 859.5 1708.65 481.01 1253.35 451.03 798.05 421.05 688.68-4.93 457.93-22.39" stroke="rgba(0, 60, 58, 1)" stroke-width="2"></path><path d="M2286.88 438.08C2025.11 453.5 1844.71 940.56 1363.09 934.88 881.46 929.2 773.55-10.13 439.29-108.07" stroke="rgba(0, 60, 58, 1)" stroke-width="2"></path></g><defs><mask id="SvgjsMask1022"><rect width="1920" height="1080" fill="#ffffff"></rect></mask><linearGradient x1="10.94%" y1="-19.44%" x2="89.06%" y2="119.44%" gradientUnits="userSpaceOnUse" id="SvgjsLinearGradient1023"><stop stop-color="rgba(0, 0, 0, 1)" offset="0.46"></stop><stop stop-color="rgba(0, 96, 92, 1)" offset="1"></stop></linearGradient></defs></svg>