<svg xmlns="http://www.w3.org/2000/svg" version="1.1" xmlns:xlink="http://www.w3.org/1999/xlink" xmlns:svgjs="http://svgjs.com/svgjs" width="1080" height="1920" preserveAspectRatio="none" viewBox="0 0 1080 1920"><g mask="url(&quot;#SvgjsMask2480&quot;)" fill="none"><rect width="1080" height="1920" x="0" y="0" fill="url(#SvgjsLinearGradient2481)"></rect><path d="M 568,-127.55608634435725 C 532.2,256.44 365.8,1024.44 389,1792.4439136556427 C 412.2,2560.44 664.6,3686.93 684,3712.443913655643 C 703.4,3737.96 525.6,2278.49 486,1920" stroke="rgba(0, 0, 0, 1)" stroke-width="2"></path><path d="M 688,-2183.0899158007187 C 612.6,-1799.09 323,-1031.09 311,-263.0899158007186 C 299,504.91 596.4,1220.29 628,1656.9100841992813 C 659.6,2093.53 500.8,1867.38 469,1920" stroke="rgba(0, 94, 90, 1)" stroke-width="2"></path><path d="M 476,-2111.375473676533 C 562.6,-1727.38 968.8,-959.38 909,-191.37547367653298 C 849.2,576.62 238,1306.35 177,1728.624526323467 C 116,2150.9 518.6,1881.72 604,1920" stroke="rgba(0, 94, 90, 1)" stroke-width="2"></path><path d="M 544,-2480.235402345811 C 501.4,-2096.24 295.8,-1328.24 331,-560.2354023458109 C 366.2,207.76 749.2,863.72 720,1359.764597654189 C 690.8,1855.81 292,1807.95 185,1920" stroke="rgba(0, 0, 0, 1)" stroke-width="2"></path><path d="M 337,-2367.8407007534897 C 447.6,-1983.84 901.8,-1215.84 890,-447.8407007534895 C 878.2,320.16 339.4,998.59 278,1472.1592992465105 C 216.6,1945.73 522,1830.43 583,1920" stroke="rgba(0, 0, 0, 1)" stroke-width="2"></path><path d="M 394,-1486.0751633395093 C 478.6,-1102.08 801.2,-334.08 817,433.92483666049077 C 832.8,1201.92 507,2056.71 473,2353.9248366604907 C 439,2651.14 612.2,2006.78 647,1920" stroke="rgba(0, 0, 0, 1)" stroke-width="2"></path><path d="M 321,-1658.0338463588143 C 408.6,-1274.03 733,-506.03 759,261.9661536411857 C 785,1029.97 467,1850.36 451,2181.966153641186 C 435,2513.57 633.4,1972.39 679,1920" stroke="rgba(0, 0, 0, 1)" stroke-width="2"></path></g><defs><mask id="SvgjsMask2480"><rect width="1080" height="1920" fill="#ffffff"></rect></mask><linearGradient x1="100%" y1="50%" x2="0%" y2="50%" gradientUnits="userSpaceOnUse" id="SvgjsLinearGradient2481"><stop stop-color="rgba(0, 94, 90, 1)" offset="0"></stop><stop stop-color="rgba(0, 0, 0, 1)" offset="1"></stop></linearGradient></defs></svg>