<svg xmlns="http://www.w3.org/2000/svg" version="1.1" xmlns:xlink="http://www.w3.org/1999/xlink" xmlns:svgjs="http://svgjs.com/svgjs" width="1920" height="1080" preserveAspectRatio="none" viewBox="0 0 1920 1080"><g mask="url(&quot;#SvgjsMask2424&quot;)" fill="none"><rect width="1920" height="1080" x="0" y="0" fill="rgba(0, 28, 27, 1)"></rect><path d="M-200.85 527.59C55.28 522.91 375.17 181.32 767.61 192.79 1160.05 204.26 1033.47 978.63 1251.84 1124.19" stroke="rgba(0, 161, 155, 1)" stroke-width="2"></path><path d="M-311.49 136.72C-119.37 139.68-18.46 330.28 419.44 374.32 857.34 418.36 897.06 1056.33 1150.37 1117.57" stroke="rgba(0, 161, 155, 1)" stroke-width="2"></path><path d="M-196.17 273.52C-48.44 288.95-21.89 555.73 294.65 608.32 611.18 660.91 616.32 1060.61 785.46 1100.42" stroke="rgba(0, 161, 155, 1)" stroke-width="2"></path><path d="M-375.62 886.33C-170.26 869.48-36.59 451.26 326.27 454.33 689.13 457.4 773.04 1179.16 1028.16 1255.36" stroke="rgba(0, 161, 155, 1)" stroke-width="2"></path><path d="M-375.54 422.86C-180.03 450.48-123.43 873.63 247.02 908.86 617.47 944.09 693.76 1228.5 869.58 1238.46" stroke="rgba(0, 161, 155, 1)" stroke-width="2"></path></g><defs><mask id="SvgjsMask2424"><rect width="1920" height="1080" fill="#ffffff"></rect></mask></defs></svg>