<svg xmlns="http://www.w3.org/2000/svg" version="1.1" xmlns:xlink="http://www.w3.org/1999/xlink" xmlns:svgjs="http://svgjs.com/svgjs" width="1080" height="1920" preserveAspectRatio="none" viewBox="0 0 1080 1920"><g mask="url(&quot;#SvgjsMask1006&quot;)" fill="none"><rect width="1080" height="1920" x="0" y="0" fill="rgba(0, 38, 37, 1)"></rect><path d="M 175,-2177.3957471716076 C 258.4,-1793.4 534.4,-1025.4 592,-257.3957471716078 C 649.6,510.6 406.4,1227.13 463,1662.6042528283922 C 519.6,2098.08 792.6,1868.52 875,1920" stroke="rgba(0, 126, 119, 1)" stroke-width="2"></path><path d="M 186,-2820.6717362611107 C 307.2,-2436.67 772.6,-1668.67 792,-900.6717362611105 C 811.4,-132.67 330.8,455.19 283,1019.3282637388895 C 235.2,1583.46 499,1739.87 553,1920" stroke="rgba(0, 126, 119, 1)" stroke-width="2"></path><path d="M 708,-1008.1293800307062 C 601.6,-624.13 198.6,143.87 176,911.8706199692938 C 153.4,1679.87 591.8,2630.24 595,2831.870619969294 C 598.2,3033.5 272.6,2102.37 192,1920" stroke="rgba(0, 126, 119, 1)" stroke-width="2"></path><path d="M 302,-3054.5695646181985 C 364.4,-2670.57 593.6,-1902.57 614,-1134.5695646181985 C 634.4,-366.57 346.4,174.52 404,785.4304353818015 C 461.6,1396.34 802.4,1693.09 902,1920" stroke="rgba(0, 126, 119, 1)" stroke-width="2"></path><path d="M 864,-1628.868115588351 C 758.8,-1244.87 335,-476.87 338,291.1318844116489 C 341,1059.13 877.4,1885.36 879,2211.131884411649 C 880.6,2536.91 452.6,1978.23 346,1920" stroke="rgba(0, 126, 119, 1)" stroke-width="2"></path><path d="M 526,-1549.6570424849879 C 554,-1165.66 668.2,-397.66 666,370.342957515012 C 663.8,1138.34 469,1980.41 515,2290.342957515012 C 561,2600.27 819.8,1994.07 896,1920" stroke="rgba(0, 126, 119, 1)" stroke-width="2"></path><path d="M 599,-2971.6621278347966 C 527.4,-2587.66 199.6,-1819.66 241,-1051.6621278347968 C 282.4,-283.66 804.4,274.01 806,868.3378721652032 C 807.6,1462.67 360.4,1709.67 249,1920" stroke="rgba(0, 126, 119, 1)" stroke-width="2"></path></g><defs><mask id="SvgjsMask1006"><rect width="1080" height="1920" fill="#ffffff"></rect></mask></defs></svg>