<svg xmlns="http://www.w3.org/2000/svg" version="1.1" xmlns:xlink="http://www.w3.org/1999/xlink" xmlns:svgjs="http://svgjs.com/svgjs" width="1920" height="1080" preserveAspectRatio="none" viewBox="0 0 1920 1080"><g mask="url(&quot;#SvgjsMask1833&quot;)" fill="none"><rect width="1920" height="1080" x="0" y="0" fill="url(#SvgjsLinearGradient1834)"></rect><path d="M1328.3-82.85C1106.46-78.46 951.19 196.93 492.08 214.6 32.98 232.27-105.49 663.76-344.13 679" stroke="rgba(0, 60, 58, 1)" stroke-width="2"></path><path d="M1149.63-31.23C952.67 44.76 1089.54 604.77 641.38 643.12 193.21 681.47-111.5 921.35-375.13 923.92" stroke="rgba(0, 60, 58, 1)" stroke-width="2"></path><path d="M1233.13-87.5C949.21 2.34 866.7 815.26 462.74 821.02 58.78 826.78-88.56 413.27-307.65 399.82" stroke="rgba(0, 60, 58, 1)" stroke-width="2"></path><path d="M1063.28-183.97C803.77-100.5 744.99 637.44 361.93 650.99-21.13 664.54-155.97 437.42-339.42 434.99" stroke="rgba(0, 60, 58, 1)" stroke-width="2"></path><path d="M898.44-185.43C699.75-90.41 753.05 465.48 414.65 550.82 76.25 636.16 69.08 811.89-69.14 820.82" stroke="rgba(0, 60, 58, 1)" stroke-width="2"></path></g><defs><mask id="SvgjsMask1833"><rect width="1920" height="1080" fill="#ffffff"></rect></mask><linearGradient x1="10.94%" y1="-19.44%" x2="89.06%" y2="119.44%" gradientUnits="userSpaceOnUse" id="SvgjsLinearGradient1834"><stop stop-color="rgba(0, 0, 0, 1)" offset="0.46"></stop><stop stop-color="rgba(0, 96, 92, 1)" offset="1"></stop></linearGradient></defs></svg>