<svg xmlns="http://www.w3.org/2000/svg" version="1.1" xmlns:xlink="http://www.w3.org/1999/xlink" xmlns:svgjs="http://svgjs.com/svgjs" width="1920" height="1080" preserveAspectRatio="none" viewBox="0 0 1920 1080"><g mask="url(&quot;#SvgjsMask1016&quot;)" fill="none"><rect width="1920" height="1080" x="0" y="0" fill="rgba(0, 31, 30, 1)"></rect><path d="M0 0L287.23 0L0 104.94z" fill="rgba(255, 255, 255, .1)"></path><path d="M0 104.94L287.23 0L712.4000000000001 0L0 574.01z" fill="rgba(255, 255, 255, .075)"></path><path d="M0 574.01L712.4000000000001 0L946.6100000000001 0L0 826.86z" fill="rgba(255, 255, 255, .05)"></path><path d="M0 826.86L946.6100000000001 0L1337.96 0L0 924.29z" fill="rgba(255, 255, 255, .025)"></path><path d="M1920 1080L1007.1 1080L1920 742.95z" fill="rgba(0, 0, 0, .1)"></path><path d="M1920 742.95L1007.1 1080L747.83 1080L1920 703.7900000000001z" fill="rgba(0, 0, 0, .075)"></path><path d="M1920 703.79L747.8299999999999 1080L530.1299999999999 1080L1920 678.54z" fill="rgba(0, 0, 0, .05)"></path><path d="M1920 678.54L530.1299999999999 1080L209.68999999999988 1080L1920 197.47999999999996z" fill="rgba(0, 0, 0, .025)"></path></g><defs><mask id="SvgjsMask1016"><rect width="1920" height="1080" fill="#ffffff"></rect></mask></defs></svg>