<svg xmlns="http://www.w3.org/2000/svg" version="1.1" xmlns:xlink="http://www.w3.org/1999/xlink" xmlns:svgjs="http://svgjs.com/svgjs" width="1920" height="1080" preserveAspectRatio="none" viewBox="0 0 1920 1080"><g mask="url(&quot;#SvgjsMask3415&quot;)" fill="none"><rect width="1920" height="1080" x="0" y="0" fill="url(#SvgjsLinearGradient3416)"></rect><path d="M -1608.2222266189804,593 C -1416.22,578.4 -1032.22,478.8 -648.2222266189804,520 C -264.22,561.2 -72.22,795.6 311.77777338101964,799 C 695.78,802.4 950.13,582.4 1271.7777733810196,537 C 1593.42,491.6 1790.36,565 1920,572" stroke="rgba(0, 94, 90, 1)" stroke-width="2"></path><path d="M -282.68759404472894,570 C -90.69,520.8 293.31,277 677.3124059552711,324 C 1061.31,371 1253.31,764.6 1637.312405955271,805 C 2021.31,845.4 2540.77,521.8 2597.312405955271,526 C 2653.85,530.2 2055.46,766 1920,826" stroke="rgba(0, 94, 90, 1)" stroke-width="2"></path><path d="M -1428.301629155105,332 C -1236.3,425.4 -852.3,790.4 -468.301629155105,799 C -84.3,807.6 107.7,377 491.698370844895,375 C 875.7,373 1166.04,822.8 1451.698370844895,789 C 1737.36,755.2 1826.34,322.6 1920,206" stroke="rgba(0, 94, 90, 1)" stroke-width="2"></path><path d="M -1475.7866391078937,266 C -1283.79,334.2 -899.79,577.6 -515.7866391078938,607 C -131.79,636.4 60.21,411.6 444.21336089210615,413 C 828.21,414.4 1109.06,631.8 1404.2133608921063,614 C 1699.37,596.2 1816.84,382 1920,324" stroke="rgba(0, 94, 90, 1)" stroke-width="2"></path><path d="M -1492.0854907211071,460 C -1300.09,499.8 -916.09,646.2 -532.0854907211071,659 C -148.09,671.8 43.91,525.6 427.91450927889287,524 C 811.91,522.4 1089.5,673.4 1387.9145092788929,651 C 1686.33,628.6 1813.58,459.8 1920,412" stroke="rgba(0, 94, 90, 1)" stroke-width="2"></path></g><defs><mask id="SvgjsMask3415"><rect width="1920" height="1080" fill="#ffffff"></rect></mask><linearGradient x1="50%" y1="100%" x2="50%" y2="0%" gradientUnits="userSpaceOnUse" id="SvgjsLinearGradient3416"><stop stop-color="rgba(0, 0, 0, 1)" offset="0.52"></stop><stop stop-color="rgba(0, 94, 90, 1)" offset="1"></stop><stop stop-color="rgba(0, 161, 155, 1)" offset="1"></stop></linearGradient></defs></svg>