<svg xmlns="http://www.w3.org/2000/svg" version="1.1" xmlns:xlink="http://www.w3.org/1999/xlink" xmlns:svgjs="http://svgjs.com/svgjs" width="1080" height="1920" preserveAspectRatio="none" viewBox="0 0 1080 1920"><g mask="url(&quot;#SvgjsMask1936&quot;)" fill="none"><rect width="1080" height="1920" x="0" y="0" fill="url(#SvgjsLinearGradient1937)"></rect><path d="M0 0L193.96 0L0 944.2z" fill="rgba(255, 255, 255, .1)"></path><path d="M0 944.2L193.96 0L510.04999999999995 0L0 1298.01z" fill="rgba(255, 255, 255, .075)"></path><path d="M0 1298.01L510.04999999999995 0L601.9599999999999 0L0 1678.19z" fill="rgba(255, 255, 255, .05)"></path><path d="M0 1678.19L601.9599999999999 0L938.6899999999999 0L0 1692.39z" fill="rgba(255, 255, 255, .025)"></path><path d="M1080 1920L649.69 1920L1080 975.92z" fill="rgba(0, 0, 0, .1)"></path><path d="M1080 975.92L649.69 1920L640.95 1920L1080 495.65999999999997z" fill="rgba(0, 0, 0, .075)"></path><path d="M1080 495.65999999999985L640.95 1920L393.5400000000001 1920L1080 379.61999999999983z" fill="rgba(0, 0, 0, .05)"></path><path d="M1080 379.6199999999999L393.53999999999996 1920L137.53999999999996 1920L1080 190.9899999999999z" fill="rgba(0, 0, 0, .025)"></path></g><defs><mask id="SvgjsMask1936"><rect width="1080" height="1920" fill="#ffffff"></rect></mask><linearGradient x1="100%" y1="50%" x2="0%" y2="50%" gradientUnits="userSpaceOnUse" id="SvgjsLinearGradient1937"><stop stop-color="rgba(0, 0, 0, 1)" offset="0"></stop><stop stop-color="rgba(0, 57, 55, 1)" offset="1"></stop><stop stop-color="rgba(0, 161, 155, 1)" offset="1"></stop></linearGradient></defs></svg>