<svg xmlns="http://www.w3.org/2000/svg" version="1.1" xmlns:xlink="http://www.w3.org/1999/xlink" xmlns:svgjs="http://svgjs.com/svgjs" width="1080" height="1920" preserveAspectRatio="none" viewBox="0 0 1080 1920"><g mask="url(&quot;#SvgjsMask1020&quot;)" fill="none"><rect width="1080" height="1920" x="0" y="0" fill="url(#SvgjsLinearGradient1021)"></rect><path d="M 469,-963.0057433601658 C 504.8,-771.01 703.2,-387.01 648,-3.005743360165738 C 592.8,380.99 214.2,572.99 193,956.9942566398342 C 171.8,1340.99 538.2,1724.39 542,1916.9942566398342 C 545.8,2109.6 278,1919.4 212,1920" stroke="rgba(0, 94, 90, 1)" stroke-width="2"></path><path d="M 446,-1852.602568091027 C 505,-1660.6 782.2,-1276.6 741,-892.602568091027 C 699.8,-508.6 244.2,-316.6 240,67.39743190897298 C 235.8,451.4 696.8,656.88 720,1027.397431908973 C 743.2,1397.92 428.8,1741.48 356,1920" stroke="rgba(0, 94, 90, 1)" stroke-width="2"></path><path d="M 848,-1162.816600167927 C 758,-970.82 417.4,-586.82 398,-202.81660016792694 C 378.6,181.18 772.2,373.18 751,757.1833998320731 C 729.8,1141.18 310.4,1484.62 292,1717.183399832073 C 273.6,1949.75 585.6,1879.44 659,1920" stroke="rgba(0, 94, 90, 1)" stroke-width="2"></path><path d="M 183,-488.50799711186437 C 319.6,-296.51 822.2,87.49 866,471.49200288813563 C 909.8,855.49 411.2,1047.49 402,1431.4920028881356 C 392.8,1815.49 805.6,2293.79 820,2391.4920028881356 C 834.4,2489.19 543.2,2014.3 474,1920" stroke="rgba(0, 94, 90, 1)" stroke-width="2"></path><path d="M 591,-240.74245936766022 C 569,-48.74 418.2,335.26 481,719.2575406323398 C 543.8,1103.26 968.6,1295.26 905,1679.25754063234 C 841.4,2063.26 204.4,2591.11 163,2639.25754063234 C 121.6,2687.41 591,2063.85 698,1920" stroke="rgba(0, 94, 90, 1)" stroke-width="2"></path></g><defs><mask id="SvgjsMask1020"><rect width="1080" height="1920" fill="#ffffff"></rect></mask><linearGradient x1="50%" y1="100%" x2="50%" y2="0%" gradientUnits="userSpaceOnUse" id="SvgjsLinearGradient1021"><stop stop-color="rgba(0, 0, 0, 1)" offset="0.52"></stop><stop stop-color="rgba(0, 94, 90, 1)" offset="1"></stop><stop stop-color="rgba(0, 161, 155, 1)" offset="1"></stop></linearGradient></defs></svg>