<svg xmlns="http://www.w3.org/2000/svg" version="1.1" xmlns:xlink="http://www.w3.org/1999/xlink" xmlns:svgjs="http://svgjs.com/svgjs" width="1920" height="1080" preserveAspectRatio="none" viewBox="0 0 1920 1080"><g mask="url(&quot;#SvgjsMask1018&quot;)" fill="none"><rect width="1920" height="1080" x="0" y="0" fill="url(#SvgjsLinearGradient1019)"></rect><path d="M351.24 1271.34C562.75 1183.61 579.49 548.92 886.67 528.19 1193.85 507.46 1154.39 663.19 1422.1 663.19 1689.81 663.19 1819.49 529.22 1957.53 528.19" stroke="rgba(0, 60, 58, 1)" stroke-width="2"></path><path d="M766.16 1189.83C1032.3 1119.96 1137.2 389.36 1520.43 388.27 1903.67 387.18 2045.78 891.96 2274.71 917.47" stroke="rgba(0, 60, 58, 1)" stroke-width="2"></path><path d="M1022.99 1086.51C1204.82 1033.15 1260.15 523.47 1525.35 518.87 1790.54 514.27 1890 740.49 2027.7 745.67" stroke="rgba(0, 60, 58, 1)" stroke-width="2"></path><path d="M411.08 1135.25C678.53 1090.77 819.48 437.43 1240.33 436.36 1661.17 435.29 1838.52 835.73 2069.57 846.76" stroke="rgba(0, 60, 58, 1)" stroke-width="2"></path><path d="M1039.64 1205.05C1248.65 1082.18 1257.82 371.61 1519.87 362.48 1781.91 353.35 1842.94 755.29 2000.09 783.68" stroke="rgba(0, 60, 58, 1)" stroke-width="2"></path></g><defs><mask id="SvgjsMask1018"><rect width="1920" height="1080" fill="#ffffff"></rect></mask><linearGradient x1="10.94%" y1="-19.44%" x2="89.06%" y2="119.44%" gradientUnits="userSpaceOnUse" id="SvgjsLinearGradient1019"><stop stop-color="rgba(0, 0, 0, 1)" offset="0.46"></stop><stop stop-color="rgba(0, 96, 92, 1)" offset="1"></stop></linearGradient></defs></svg>