<svg xmlns="http://www.w3.org/2000/svg" version="1.1" xmlns:xlink="http://www.w3.org/1999/xlink" xmlns:svgjs="http://svgjs.com/svgjs" width="1080" height="1920" preserveAspectRatio="none" viewBox="0 0 1080 1920"><g mask="url(&quot;#SvgjsMask1069&quot;)" fill="none"><rect width="1080" height="1920" x="0" y="0" fill="rgba(0, 38, 37, 1)"></rect><path d="M 654,-603.570060641149 C 600.6,-475.57 355,-219.57 387,36.429939358851016 C 419,292.43 840.6,420.43 814,676.429939358851 C 787.4,932.43 269.2,1060.43 254,1316.429939358851 C 238.8,1572.43 703.4,1835.72 738,1956.429939358851 C 772.6,2077.14 489.2,1927.29 427,1920" stroke="rgba(0, 126, 119, 1)" stroke-width="2"></path><path d="M 463,-480.6199785595452 C 529.8,-352.62 792.6,-96.62 797,159.38002144045484 C 801.4,415.38 525.8,543.38 485,799.3800214404548 C 444.2,1055.38 647.4,1183.38 593,1439.3800214404548 C 538.6,1695.38 155.8,1983.26 213,2079.380021440455 C 270.2,2175.5 745.8,1951.88 879,1920" stroke="rgba(0, 126, 119, 1)" stroke-width="2"></path><path d="M 308,-1102.5668011757039 C 403,-974.57 756.8,-718.57 783,-462.566801175704 C 809.2,-206.57 447.8,-78.57 439,177.43319882429603 C 430.2,433.43 766.2,561.43 739,817.433198824296 C 711.8,1073.43 285.4,1236.92 303,1457.4331988242961 C 320.6,1677.95 722.2,1827.49 827,1920" stroke="rgba(0, 126, 119, 1)" stroke-width="2"></path><path d="M 657,-1123.3544929435338 C 569.6,-995.35 218.8,-739.35 220,-483.35449294353396 C 221.2,-227.35 602.4,-99.35 663,156.64550705646604 C 723.6,412.65 539.4,540.65 523,796.645507056466 C 506.6,1052.65 595.8,1211.97 581,1436.6455070564662 C 566.2,1661.32 475.4,1823.33 449,1920" stroke="rgba(0, 126, 119, 1)" stroke-width="2"></path><path d="M 690,-1153.0190219453418 C 634.6,-1025.02 400.2,-769.02 413,-513.0190219453418 C 425.8,-257.02 741,-129.02 754,126.98097805465818 C 767,382.98 509,510.98 478,766.9809780546582 C 447,1022.98 597.8,1176.38 599,1406.9809780546582 C 600.2,1637.58 507,1817.4 484,1920" stroke="rgba(0, 126, 119, 1)" stroke-width="2"></path></g><defs><mask id="SvgjsMask1069"><rect width="1080" height="1920" fill="#ffffff"></rect></mask></defs></svg>